<svg width="32" height="32" viewBox="0 0 32 32" fill="none" xmlns="http://www.w3.org/2000/svg">
<path fill-rule="evenodd" clip-rule="evenodd" d="M1 15.8898V20.2835H10.8619V15.8898H1Z" fill="#3C82F6"/>
<path fill-rule="evenodd" clip-rule="evenodd" d="M8.44401 7.73707L13.8188 13.0153L10.7836 15.996L5.40881 10.7177L8.44401 7.73707Z" fill="#3C82F6"/>
<path fill-rule="evenodd" clip-rule="evenodd" d="M10.7836 20.2533L13.8188 23.234L8.44401 28.5122L5.40881 25.5316L10.7836 20.2533Z" fill="#3C82F6"/>
<path fill-rule="evenodd" clip-rule="evenodd" d="M31 15.8898V20.2835H21.1381V15.8898H31Z" fill="#3C82F6"/>
<path fill-rule="evenodd" clip-rule="evenodd" d="M23.556 7.73707L18.1812 13.0153L21.2164 15.996L26.5912 10.7177L23.556 7.73707Z" fill="#3C82F6"/>
<path fill-rule="evenodd" clip-rule="evenodd" d="M21.2164 20.2533L18.1812 23.234L23.556 28.5122L26.5912 25.5316L21.2164 20.2533Z" fill="#3C82F6"/>
<path d="M13.8446 32V1H18.1554V32H13.8446Z" fill="#3C82F6"/>
</svg>
