<svg width="187" height="60" viewBox="0 0 187 60" fill="none" xmlns="http://www.w3.org/2000/svg">
<path fill-rule="evenodd" clip-rule="evenodd" d="M0 28.8189V37.3228H18.8704V28.8189H0Z" fill="#2463EB"/>
<path fill-rule="evenodd" clip-rule="evenodd" d="M14.2438 13.0395L24.5284 23.2555L18.7206 29.0245L8.4361 18.8085L14.2438 13.0395Z" fill="#2463EB"/>
<path fill-rule="evenodd" clip-rule="evenodd" d="M18.7206 37.2644L24.5284 43.0335L14.2438 53.2494L8.4361 47.4804L18.7206 37.2644Z" fill="#2463EB"/>
<path fill-rule="evenodd" clip-rule="evenodd" d="M57.4039 28.8189V37.3228H38.5335V28.8189H57.4039Z" fill="#2463EB"/>
<path fill-rule="evenodd" clip-rule="evenodd" d="M43.1601 13.0395L32.8755 23.2555L38.6833 29.0245L48.9678 18.8085L43.1601 13.0395Z" fill="#2463EB"/>
<path fill-rule="evenodd" clip-rule="evenodd" d="M38.6833 37.2644L32.8755 43.0335L43.1601 53.2494L48.9678 47.4804L38.6833 37.2644Z" fill="#2463EB"/>
<path d="M24.5777 60V0H32.8262V60H24.5777Z" fill="#2463EB"/>
<path d="M159.609 51V19.08H165.429L165.609 24.6C167.289 20.28 170.949 18.36 175.269 18.36C182.409 18.36 186.069 23.52 186.069 30.48V51H179.709V32.4C179.709 26.76 177.969 23.7 173.529 23.7C169.029 23.7 165.969 26.76 165.969 32.4V51H159.609Z" fill="#020817"/>
<path d="M137.344 51V19.08H143.164L143.344 25.14C144.544 20.94 147.004 19.08 150.964 19.08H154.024V24.78H150.964C146.104 24.78 143.704 27.12 143.704 32.16V51H137.344Z" fill="#020817"/>
<path d="M115.449 51.72C106.269 51.72 100.269 45.18 100.269 35.04C100.269 24.9 106.269 18.36 115.449 18.36C124.569 18.36 130.569 24.9 130.569 35.04C130.569 45.18 124.569 51.72 115.449 51.72ZM115.449 46.2C120.849 46.2 123.969 42.06 123.969 35.04C123.969 28.02 120.849 23.88 115.449 23.88C110.049 23.88 106.869 28.02 106.869 35.04C106.869 42.06 110.049 46.2 115.449 46.2Z" fill="#020817"/>
<path d="M67.5 51V19.08H73.32L73.5 24.6C75.18 20.28 78.84 18.36 83.16 18.36C90.3 18.36 93.96 23.52 93.96 30.48V51H87.6V32.4C87.6 26.76 85.86 23.7 81.42 23.7C76.92 23.7 73.86 26.76 73.86 32.4V51H67.5Z" fill="#020817"/>
</svg>
